<svg xmlns="http://www.w3.org/2000/svg" viewBox="0 0 32 32"><path d="M4.6 16c0-2.1.6-4.1 1.6-5.8l8 13.9c-5.5-.5-9.6-4.1-9.6-8.1zm13.6 8.1L10 10.2A11.3 11.3 0 0 1 16 8.4c3.2 0 6.1 1.3 8.2 3.4L16 24.1zm9.1-3.7c.5-1.4.7-2.8.7-4.4 0-6.3-5.1-11.4-11.4-11.4S5.2 1.6 5.2 8c0 1.6.3 3 .8 4.4" fill="none" stroke="#FCCA3F" stroke-width="1.5"/><path d="M16 2C8.3 2 2 8.3 2 16s6.3 14 14 14 14-6.3 14-14S23.7 2 16 2zm0 25c-6.1 0-11-4.9-11-11S9.9 5 16 5s11 4.9 11 11-4.9 11-11 11z" fill="#FCCA3F"/><path d="M19.6 15.3h-2.2l-1.1-1.9 1.1-1.9h2.2l1.1 1.9-1.1 1.9zm-4.4 2.5h-2.2l-1.1-1.9 1.1-1.9h2.2l1.1 1.9-1.1 1.9zm0 0h-2.2l-1.1 1.9 1.1 1.9h2.2l1.1-1.9-1.1-1.9z" fill="#FCCA3F"/></svg>
