<svg xmlns="http://www.w3.org/2000/svg" viewBox="0 0 32 32"><path d="M20.3 2.1c-.8 0-1.6.3-2.3.8l-3.6 2.6c-.4.3-.5.8-.3 1.2l5.4 10.1c.2.3.5.5.9.5h.1c.4 0 .7-.2.9-.5l5.4-10.1c.2-.4.1-.9-.3-1.2l-3.6-2.6c-.7-.5-1.5-.8-2.6-.8zM11.7 2.1c-1.1 0-1.9.3-2.6.8L5.5 5.5c-.4.3-.5.8-.3 1.2l5.4 10.1c.2.3.5.5.9.5h.1c.4 0 .7-.2.9-.5l5.4-10.1c.2-.4.1-.9-.3-1.2L14 2.9c-.7-.5-1.4-.8-2.3-.8zm4.3 16.5c-.4 0-.7.2-.9.5L9.7 29.2c-.2.4-.1.9.3 1.2l3.6 2.6c.7.5 1.5.8 2.4.8s1.7-.3 2.4-.8l3.6-2.6c.4-.3.5-.8.3-1.2l-5.4-10.1c-.2-.3-.5-.5-.9-.5z" fill="#f89820"/></svg>
