<svg xmlns="http://www.w3.org/2000/svg" viewBox="0 0 32 32"><path d="M16 2C8.3 2 2 8.3 2 16s6.3 14 14 14 14-6.3 14-14S23.7 2 16 2zm0 3c1.4 0 2.7.3 3.9.7l-1.5 2.6c-.8-.2-1.6-.3-2.4-.3s-1.6.1-2.4.3L12.1 5.7C13.3 5.3 14.6 5 16 5zm-7.1 3.5L10.4 11c-1 .9-1.8 1.9-2.3 3.1L5.4 13c.7-1.7 1.9-3.2 3.5-4.5zM5 16c0-.3 0-.7.1-1l3 1.1c0 0 0 .1-.1.2v.1c0 .2 0 .4.1.6L5.1 18c-.1-.7-.1-1.3-.1-2zm1.6 4.5l2.6-1.5c.5 1.2 1.3 2.2 2.3 3.1l-1.5 2.6c-1.5-1.1-2.7-2.5-3.4-4.2zm6.3 6.8l1.5-2.6c.8.2 1.6.3 2.4.3h.4c.7 0 1.4-.1 2-.3l1.5 2.6c-1.2.4-2.5.7-3.9.7-1.4 0-2.6-.3-3.9-.7zm10.2-2.8l-1.5-2.6c1-.9 1.8-1.9 2.3-3.1l2.6 1.5c-.7 1.7-1.9 3.2-3.4 4.2zM27 16c0 .7-.1 1.4-.1 2l-3-1.1c.1-.3.1-.6.1-.9s0-.4-.1-.6l3-1.1c.1.5.1 1.1.1 1.7zm-1.6-4.5l-2.6 1.5c-.5-1.2-1.3-2.2-2.3-3.1l1.5-2.6c1.6 1.3 2.8 2.8 3.4 4.2z" fill="#231f20"/></svg>
